<svg width="1175" height="1232" viewBox="0 0 1175 1232" fill="none" xmlns="http://www.w3.org/2000/svg">
<path d="M456.436 180.453C516.936 173.953 570.936 205.453 618.936 221.953C666.936 238.453 788.937 221.953 832.937 243.953C876.938 265.953 1078.94 371.954 1056.94 653.953C1034.94 935.952 740.936 1045.95 598.936 1051.95C456.936 1057.95 290.937 1005.95 206.937 893.953C122.937 781.953 81.4364 628.953 152.936 501.953C224.436 374.952 192.936 313.953 286.436 244.453C379.936 174.953 395.936 186.953 456.436 180.453ZM477.205 303.01C470.063 284.825 446.683 260.358 427.357 261.591C403.857 263.092 377.857 290.602 375.357 313.591C372.857 336.581 409.357 363.101 427.357 365.591C437.298 366.966 451.813 356.145 462.987 343.318C477.341 345.368 493.514 348.581 509.762 353.073C539.423 361.272 566.684 373.009 583.722 387.553C591.684 394.35 601.295 406.436 612.74 423.128C624.045 439.619 635.73 458.449 648.595 478.355C661.219 497.888 674.737 518.059 688.843 535.623C698.614 547.787 709.185 559.364 720.523 568.779C713.3 567.3 706.139 565.748 699.079 564.119C659.573 555.002 625.341 527.877 592.689 495.841C576.049 479.516 561.851 464.044 546.308 448.319C531.569 433.407 516.336 419.042 500.779 408.959C468.408 387.978 429.184 384.316 395.658 384.834C387.238 384.964 378.949 385.367 371.001 385.884C363.564 369.375 347.341 349.718 323.48 348.633C291.603 347.185 276.103 367.685 271.48 400.633C266.857 433.582 286.358 457.582 323.48 452.633C343.467 449.969 357.547 439.722 365.997 428.341C375.891 427.598 386.037 426.987 396.306 426.829C427.529 426.346 456.306 430.185 477.935 444.204C489.377 451.62 501.895 463.131 516.437 477.843C530.175 491.743 546.79 509.647 563.275 525.821C586.339 548.449 613.018 571.742 644.137 587.968C590.209 583.581 552.812 570.851 525.144 557.436C507.809 549.031 493.947 540.2 481.393 532.153C469.56 524.568 456.942 516.301 444.452 511.817C420.121 503.083 384.333 503.679 351.535 506.537C338.968 507.631 326.225 509.127 313.861 510.805C302.84 491.433 278.541 477.981 267.479 477.63C253.101 477.175 220.101 490.176 215.479 529.63C210.857 569.085 255.101 576.675 267.479 581.63C276.312 585.167 299.467 571.918 311.685 553.517C325.917 551.471 340.723 549.637 355.179 548.377C388.38 545.485 415.593 546.081 430.262 551.347C437.271 553.863 445.404 558.973 458.727 567.512C471.329 575.59 487.03 585.633 506.82 595.228C528.409 605.695 554.468 615.444 586.939 622.208C575.894 626.819 566.158 631.873 558.294 637.391C538.634 651.188 511.709 648.912 476.891 638.466C459.348 633.203 444.201 627.381 426.669 621.674C410.713 616.481 393.265 611.582 377.357 611.582C348.852 611.582 325.124 619.235 302.318 628.858C297.93 630.709 293.705 632.569 289.559 634.433C284.579 621.543 269.79 616.533 237.479 615.628C185.479 614.173 183.101 651.173 185.479 667.628C187.857 684.084 211.601 713.673 237.479 719.628C259.842 724.775 277.439 710.909 286.082 682.23C298.196 676.724 309.227 671.529 318.646 667.554C339.089 658.928 356.862 653.582 377.357 653.582C385.949 653.582 397.751 656.432 413.669 661.613C428.012 666.281 447.366 673.459 464.823 678.696C500.004 689.25 545.08 697.974 582.419 671.771C593.548 663.961 614.172 655.527 642.525 648.003C648.778 646.344 655.314 644.755 662.085 643.241C660.271 644.768 658.472 646.308 656.688 647.859C647.822 655.567 639.062 663.75 630.32 671.846C621.483 680.03 612.506 688.276 602.739 696.596C565.988 727.902 536.572 734.928 510.732 735.851C496.964 736.343 484.149 735.125 469.757 734.109C455.942 733.134 440.635 732.351 425.04 734.846C391.079 740.28 356.806 751.498 326.949 766.828C316.537 753.054 299.638 743.911 286.477 743.627C265.44 743.172 238.593 771.672 236.475 795.627C234.358 819.582 269.168 845.136 286.477 847.627C300.426 849.633 323.313 833.113 332.522 811.731C360.464 795.028 395.848 782.051 431.674 776.319C442.078 774.654 453.147 775.041 466.8 776.004C479.877 776.927 495.625 778.417 512.232 777.824C547.142 776.577 585.726 766.262 629.975 728.568C640.457 719.639 649.981 710.884 658.859 702.662C667.831 694.352 676.001 686.722 684.245 679.555C700.575 665.357 716.279 653.806 735.342 645.236C742.264 642.124 749.773 639.344 758.071 636.981C747.555 643.847 738.706 650.247 731.484 654.618C723.831 659.25 717.101 666.085 711.326 672.944C705.375 680.012 699.406 688.368 693.503 697.153C687.583 705.964 681.423 715.674 675.191 725.471C668.902 735.358 662.478 745.431 655.8 755.372C642.349 775.394 628.484 793.927 613.986 807.961C599.35 822.129 585.848 829.965 573.309 831.804C536.635 837.183 495.154 842.102 456.857 850.017C441.335 853.225 425.877 857.004 410.991 861.68C401.869 848.513 386.264 838.897 368.478 838.583C340.155 838.083 317.097 865.671 317.477 887.627C317.857 909.582 339.099 950.082 368.478 944.582C391.296 940.31 409.358 923.068 416.346 904.124C431.253 899.021 447.714 894.794 465.357 891.148C502.059 883.563 541.079 878.981 579.405 873.36C604.366 869.699 625.614 855.159 643.197 838.139C660.917 820.986 676.74 799.519 690.664 778.793C697.673 768.359 704.359 757.869 710.628 748.014C716.954 738.07 722.803 728.856 728.367 720.575C733.948 712.267 738.941 705.356 743.455 699.995C748.143 694.426 751.383 691.667 753.23 690.549C775.791 676.894 789.417 664.006 816.469 652.88C831.959 646.51 851.501 641.136 877.821 638.796C887.691 654.841 904.391 669.077 922.794 673.085C950.143 679.04 989.773 663.539 996.772 625.085C1003.77 586.63 988.317 554.04 933.363 552.585C898.373 551.658 880.573 567.721 873.033 585.581C872.248 585.519 871.463 585.46 870.675 585.402C831.422 576.446 788.295 562.477 757.255 543.631C746.36 537.017 734.429 525.308 721.589 509.322C708.915 493.542 696.369 474.9 683.869 455.558C671.609 436.589 659.106 416.482 647.38 399.378C635.794 382.478 623.529 366.313 610.992 355.61C587.03 335.155 552.79 321.391 520.952 312.59C506.085 308.481 491.165 305.3 477.205 303.01Z" fill="#083C33"/>
<path d="M961.826 575.371C970.137 581.732 947.263 599.054 947.567 611.332C947.871 623.609 970.028 639.593 962.486 646.515C954.944 653.437 898.739 630.598 896 614.503C893.26 598.407 951.438 567.418 961.826 575.371Z" fill="url(#paint0_linear_12659_6655)"/>
<path d="M457.343 314.061C456.777 323.69 438.082 344.925 427.885 343.515C417.688 342.105 397.01 327.083 398.426 314.061C399.843 301.039 414.572 285.457 427.885 284.607C441.198 283.758 457.91 304.432 457.343 314.061Z" fill="url(#paint1_linear_12659_6655)"/>
<path d="M353.276 401.417C354.351 410.559 344.759 428.376 323.508 431.211C302.258 434.046 291.095 420.295 293.741 401.417C296.387 382.539 305.26 370.793 323.508 371.623C341.757 372.453 352.201 392.275 353.276 401.417Z" fill="url(#paint2_linear_12659_6655)"/>
<path d="M293.349 529.923C293.846 546.258 270.947 562.054 263.948 559.258C256.95 556.463 231.934 552.181 234.548 529.923C237.161 507.665 255.819 500.332 263.948 500.588C272.078 500.845 292.853 513.589 293.349 529.923Z" fill="url(#paint3_linear_12659_6655)"/>
<path d="M268.161 667.797C264.438 689.385 253.476 700.332 238.927 696.989C224.379 693.646 211.03 677.035 209.693 667.797C208.356 658.56 209.693 637.788 238.927 638.605C268.161 639.422 271.884 646.209 268.161 667.797Z" fill="url(#paint4_linear_12659_6655)"/>
<path d="M312.322 797.037C311.398 813.153 293.716 827.898 283.866 826.488C274.016 825.078 254.205 810.604 255.41 797.037C256.615 783.469 271.894 767.327 283.866 767.585C295.838 767.843 313.246 780.92 312.322 797.037Z" fill="url(#paint5_linear_12659_6655)"/>
<path d="M398.357 891.673C398.289 905.678 386.063 921.141 369.358 924.291C352.654 927.441 340.576 904.247 340.36 891.673C340.144 879.099 353.254 863.299 369.358 863.586C385.463 863.872 398.425 877.667 398.357 891.673Z" fill="url(#paint6_linear_12659_6655)"/>
<defs>
<linearGradient id="paint0_linear_12659_6655" x1="970.078" y1="574.824" x2="890.357" y2="640.732" gradientUnits="userSpaceOnUse">
<stop stop-color="#7D5330"/>
<stop offset="1" stop-color="#D99C56"/>
</linearGradient>
<linearGradient id="paint1_linear_12659_6655" x1="398.357" y1="313.983" x2="445.56" y2="290.385" gradientUnits="userSpaceOnUse">
<stop stop-color="#7C5E24"/>
<stop offset="1" stop-color="#C8A564"/>
</linearGradient>
<linearGradient id="paint2_linear_12659_6655" x1="293.357" y1="401.481" x2="341.36" y2="377.484" gradientUnits="userSpaceOnUse">
<stop stop-color="#7C5E24"/>
<stop offset="1" stop-color="#C8A564"/>
</linearGradient>
<linearGradient id="paint3_linear_12659_6655" x1="234.357" y1="529.983" x2="281.56" y2="506.385" gradientUnits="userSpaceOnUse">
<stop stop-color="#7C5E24"/>
<stop offset="1" stop-color="#C8A564"/>
</linearGradient>
<linearGradient id="paint4_linear_12659_6655" x1="209.357" y1="667.983" x2="257.034" y2="643.744" gradientUnits="userSpaceOnUse">
<stop stop-color="#7C5E24"/>
<stop offset="1" stop-color="#C8A564"/>
</linearGradient>
<linearGradient id="paint5_linear_12659_6655" x1="255.357" y1="796.983" x2="301.576" y2="774.661" gradientUnits="userSpaceOnUse">
<stop stop-color="#7C5E24"/>
<stop offset="1" stop-color="#C8A564"/>
</linearGradient>
<linearGradient id="paint6_linear_12659_6655" x1="340.357" y1="893.98" x2="387.667" y2="871.491" gradientUnits="userSpaceOnUse">
<stop stop-color="#7C5E24"/>
<stop offset="1" stop-color="#C8A564"/>
</linearGradient>
</defs>
</svg>
